<svg width="68" height="68" viewBox="0 0 68 68" fill="none" xmlns="http://www.w3.org/2000/svg">
<path fill-rule="evenodd" clip-rule="evenodd" d="M17.0292 17.0294C15.4671 18.5915 15.4671 21.1242 17.0292 22.6863L22.686 28.3431C24.6661 30.3232 25.6561 31.3133 26.0271 32.4549C26.3534 33.4591 26.3534 34.5409 26.0271 35.5451C25.6561 36.6867 24.6661 37.6768 22.686 39.6569L17.0292 45.3137C15.4671 46.8758 15.4671 49.4085 17.0292 50.9706C18.5913 52.5327 21.1239 52.5327 22.686 50.9706L28.3429 45.3137C30.3229 43.3336 31.313 42.3436 32.4546 41.9726C33.4588 41.6463 34.5406 41.6463 35.5448 41.9726C36.6864 42.3436 37.6765 43.3336 39.6566 45.3137L45.3134 50.9706C46.8755 52.5327 49.4082 52.5327 50.9703 50.9706C52.5324 49.4085 52.5324 46.8758 50.9703 45.3137L45.3134 39.6569C43.3333 37.6768 42.3433 36.6867 41.9724 35.5451C41.6461 34.5409 41.6461 33.4591 41.9724 32.4549C42.3433 31.3133 43.3333 30.3232 45.3134 28.3431L50.9703 22.6863C52.5324 21.1242 52.5324 18.5915 50.9703 17.0294C49.4082 15.4673 46.8755 15.4673 45.3134 17.0294L39.6566 22.6863C37.6765 24.6664 36.6864 25.6564 35.5448 26.0274C34.5406 26.3537 33.4589 26.3537 32.4546 26.0274C31.313 25.6564 30.3229 24.6664 28.3429 22.6863L22.686 17.0294C21.1239 15.4673 18.5913 15.4673 17.0292 17.0294Z" fill="#4C5964"/>
<g filter="url(#filter0_i_3_12)">
<circle cx="34" cy="34" r="4" fill="#4C5964"/>
</g>
<defs>
<filter id="filter0_i_3_12" x="30" y="30" width="8" height="8" filterUnits="userSpaceOnUse" color-interpolation-filters="sRGB">
<feFlood flood-opacity="0" result="BackgroundImageFix"/>
<feBlend mode="normal" in="SourceGraphic" in2="BackgroundImageFix" result="shape"/>
<feColorMatrix in="SourceAlpha" type="matrix" values="0 0 0 0 0 0 0 0 0 0 0 0 0 0 0 0 0 0 127 0" result="hardAlpha"/>
<feOffset dx="1" dy="1"/>
<feComposite in2="hardAlpha" operator="arithmetic" k2="-1" k3="1"/>
<feColorMatrix type="matrix" values="0 0 0 0 0 0 0 0 0 0 0 0 0 0 0 0 0 0 0.25 0"/>
<feBlend mode="normal" in2="shape" result="effect1_innerShadow_3_12"/>
</filter>
</defs>
</svg>
