<svg width="47" height="35" viewBox="0 0 47 35" fill="none" xmlns="http://www.w3.org/2000/svg">
<path d="M39.1189 2.9312C36.0848 1.54212 32.8818 0.556665 29.5916 0C29.1414 0.804856 28.734 1.63294 28.3712 2.4808C24.8665 1.95268 21.3025 1.95268 17.7978 2.4808C17.4348 1.63303 17.0274 0.804953 16.5774 0C13.2851 0.561366 10.08 1.54916 7.04283 2.93846C1.01335 11.8592 -0.621143 20.5583 0.196105 29.134C3.72712 31.7428 7.67932 33.7269 11.8809 35C12.827 33.7276 13.6642 32.3777 14.3835 30.9646C13.0172 30.4543 11.6985 29.8247 10.4426 29.0831C10.7731 28.8434 11.0964 28.5964 11.4087 28.3567C15.0631 30.0752 19.0517 30.9663 23.0899 30.9663C27.1282 30.9663 31.1168 30.0752 34.7711 28.3567C35.0871 28.6146 35.4104 28.8616 35.7373 29.0831C34.479 29.8259 33.1578 30.4567 31.7891 30.9682C32.5076 32.3806 33.3448 33.7294 34.2917 35C38.4969 33.732 42.4521 31.7489 45.9838 29.1376C46.9427 19.1926 44.3456 10.5734 39.1189 2.9312ZM15.4187 23.86C13.1413 23.86 11.2598 21.7933 11.2598 19.2507C11.2598 16.7082 13.0759 14.6233 15.4114 14.6233C17.747 14.6233 19.6139 16.7082 19.574 19.2507C19.534 21.7933 17.7397 23.86 15.4187 23.86ZM30.7612 23.86C28.4801 23.86 26.6059 21.7933 26.6059 19.2507C26.6059 16.7082 28.422 14.6233 30.7612 14.6233C33.1003 14.6233 34.9528 16.7082 34.9128 19.2507C34.8728 21.7933 33.0822 23.86 30.7612 23.86Z" fill="white"/>
</svg>
