<svg width="868" height="356" viewBox="0 0 868 356" fill="none" xmlns="http://www.w3.org/2000/svg">
<mask id="path-1-inside-1_5307_24626" fill="white">
<path fill-rule="evenodd" clip-rule="evenodd" d="M640 50C640 22.3858 662.386 0 690 0C717.614 0 740 22.3858 740 50C740 76.1176 740 89.1763 744.759 99.289C749.713 109.817 758.183 118.287 768.711 123.241C778.824 128 791.882 128 818 128C845.614 128 868 150.386 868 178C868 205.614 845.614 228 818 228C791.882 228 778.824 228 768.711 232.759C758.183 237.713 749.713 246.183 744.759 256.711C740 266.824 740 279.882 740 306C740 333.614 717.614 356 690 356C662.386 356 640 333.614 640 306C640 279.882 640 266.824 635.241 256.711C630.287 246.183 621.817 237.713 611.289 232.759C601.176 228 588.118 228 562 228L306 228C279.882 228 266.824 228 256.711 232.759C246.183 237.713 237.713 246.183 232.759 256.711C228 266.824 228 279.882 228 306C228 333.614 205.614 356 178 356C150.386 356 128 333.614 128 306C128 279.882 128 266.824 123.241 256.711C118.287 246.183 109.817 237.713 99.289 232.759C89.1763 228 76.1175 228 50 228C22.3857 228 -1.20706e-06 205.614 0 178C2.18557e-06 150.386 22.3858 128 50 128C76.1175 128 89.1763 128 99.2889 123.241C109.817 118.287 118.287 109.817 123.241 99.2889C128 89.1763 128 76.1175 128 50C128 22.3858 150.386 0 178 0C205.614 0 228 22.3858 228 50C228 76.1175 228 89.1763 232.759 99.2889C237.713 109.817 246.183 118.287 256.711 123.241C266.824 128 279.882 128 306 128L562 128C588.118 128 601.176 128 611.289 123.241C621.817 118.287 630.287 109.817 635.241 99.2889C640 89.1763 640 76.1175 640 50Z"/>
</mask>
<path fill-rule="evenodd" clip-rule="evenodd" d="M640 50C640 22.3858 662.386 0 690 0C717.614 0 740 22.3858 740 50C740 76.1176 740 89.1763 744.759 99.289C749.713 109.817 758.183 118.287 768.711 123.241C778.824 128 791.882 128 818 128C845.614 128 868 150.386 868 178C868 205.614 845.614 228 818 228C791.882 228 778.824 228 768.711 232.759C758.183 237.713 749.713 246.183 744.759 256.711C740 266.824 740 279.882 740 306C740 333.614 717.614 356 690 356C662.386 356 640 333.614 640 306C640 279.882 640 266.824 635.241 256.711C630.287 246.183 621.817 237.713 611.289 232.759C601.176 228 588.118 228 562 228L306 228C279.882 228 266.824 228 256.711 232.759C246.183 237.713 237.713 246.183 232.759 256.711C228 266.824 228 279.882 228 306C228 333.614 205.614 356 178 356C150.386 356 128 333.614 128 306C128 279.882 128 266.824 123.241 256.711C118.287 246.183 109.817 237.713 99.289 232.759C89.1763 228 76.1175 228 50 228C22.3857 228 -1.20706e-06 205.614 0 178C2.18557e-06 150.386 22.3858 128 50 128C76.1175 128 89.1763 128 99.2889 123.241C109.817 118.287 118.287 109.817 123.241 99.2889C128 89.1763 128 76.1175 128 50C128 22.3858 150.386 0 178 0C205.614 0 228 22.3858 228 50C228 76.1175 228 89.1763 232.759 99.2889C237.713 109.817 246.183 118.287 256.711 123.241C266.824 128 279.882 128 306 128L562 128C588.118 128 601.176 128 611.289 123.241C621.817 118.287 630.287 109.817 635.241 99.2889C640 89.1763 640 76.1175 640 50Z" fill="#8BB8D9" fill-opacity="0.08"/>
<path d="M0 178H-1H0ZM232.759 99.2889L233.663 98.8631L232.759 99.2889ZM256.711 123.241L257.137 122.337L256.711 123.241ZM123.241 99.2889L122.337 98.8631L123.241 99.2889ZM123.241 256.711L122.337 257.137L123.241 256.711ZM99.289 232.759L99.7147 231.854L99.289 232.759ZM635.241 256.711L634.337 257.137L635.241 256.711ZM562 228V229V228ZM611.289 232.759L611.715 231.854L611.289 232.759ZM256.711 232.759L256.285 231.854L256.711 232.759ZM232.759 256.711L233.663 257.137L232.759 256.711ZM768.711 232.759L769.137 233.663L768.711 232.759ZM744.759 256.711L745.663 257.137L744.759 256.711ZM611.289 123.241L611.715 124.146L611.289 123.241ZM635.241 99.2889L634.337 98.8632L635.241 99.2889ZM744.759 99.289L743.854 99.7147L744.759 99.289ZM768.711 123.241L769.137 122.337L768.711 123.241ZM690 -1C661.833 -1 639 21.8335 639 50H641C641 22.9381 662.938 1 690 1V-1ZM741 50C741 21.8335 718.167 -1 690 -1V1C717.062 1 739 22.9381 739 50H741ZM869 178C869 149.833 846.167 127 818 127V129C845.062 129 867 150.938 867 178H869ZM818 229C846.167 229 869 206.167 869 178H867C867 205.062 845.062 227 818 227V229ZM690 357C718.167 357 741 334.167 741 306H739C739 333.062 717.062 355 690 355V357ZM639 306C639 334.167 661.833 357 690 357V355C662.938 355 641 333.062 641 306H639ZM306 229L562 229V227L306 227V229ZM227 306C227 333.062 205.062 355 178 355V357C206.167 357 229 334.167 229 306H227ZM178 355C150.938 355 129 333.062 129 306H127C127 334.167 149.833 357 178 357V355ZM-1 178C-1 206.167 21.8334 229 50 229V227C22.938 227 0.999999 205.062 1 178H-1ZM50 127C21.8335 127 -0.999998 149.833 -1 178H1C1 150.938 22.9381 129 50 129V127ZM129 50C129 22.9381 150.938 1 178 1V-1C149.833 -1 127 21.8335 127 50H129ZM178 1C205.062 1 227 22.9381 227 50H229C229 21.8335 206.167 -1 178 -1V1ZM562 127L306 127V129L562 129V127ZM227 50C227 63.0434 226.999 72.8821 227.598 80.7224C228.197 88.5733 229.401 94.5025 231.854 99.7147L233.663 98.8631C231.358 93.9627 230.182 88.3062 229.592 80.5702C229.001 72.8236 229 63.0741 229 50H227ZM306 127C292.926 127 283.176 126.999 275.43 126.408C267.694 125.818 262.037 124.642 257.137 122.337L256.285 124.146C261.497 126.599 267.427 127.803 275.278 128.402C283.118 129.001 292.957 129 306 129V127ZM231.854 99.7147C236.907 110.453 245.547 119.093 256.285 124.146L257.137 122.337C246.82 117.482 238.518 109.18 233.663 98.8631L231.854 99.7147ZM50 129C63.0434 129 72.8821 129.001 80.7224 128.402C88.5733 127.803 94.5025 126.599 99.7147 124.146L98.8632 122.337C93.9628 124.642 88.3062 125.818 80.5702 126.408C72.8236 126.999 63.0741 127 50 127V129ZM127 50C127 63.0741 126.999 72.8236 126.408 80.5702C125.818 88.3062 124.642 93.9627 122.337 98.8631L124.146 99.7147C126.599 94.5025 127.803 88.5733 128.402 80.7224C129.001 72.882 129 63.0434 129 50H127ZM99.7147 124.146C110.453 119.093 119.093 110.453 124.146 99.7147L122.337 98.8631C117.482 109.18 109.18 117.482 98.8632 122.337L99.7147 124.146ZM129 306C129 292.957 129.001 283.118 128.402 275.278C127.803 267.427 126.599 261.497 124.146 256.285L122.337 257.137C124.642 262.037 125.818 267.694 126.408 275.43C126.999 283.176 127 292.926 127 306H129ZM50 229C63.0741 229 72.8236 229.001 80.5702 229.592C88.3063 230.182 93.9628 231.358 98.8632 233.663L99.7147 231.854C94.5025 229.401 88.5733 228.197 80.7224 227.598C72.8821 226.999 63.0434 227 50 227V229ZM124.146 256.285C119.093 245.547 110.453 236.907 99.7147 231.854L98.8632 233.663C109.18 238.518 117.482 246.82 122.337 257.137L124.146 256.285ZM641 306C641 292.957 641.001 283.118 640.402 275.278C639.803 267.427 638.599 261.497 636.146 256.285L634.337 257.137C636.643 262.037 637.818 267.694 638.408 275.43C638.999 283.176 639 292.926 639 306H641ZM562 229C575.074 229 584.824 229.001 592.57 229.592C600.306 230.182 605.963 231.358 610.863 233.663L611.715 231.854C606.503 229.401 600.573 228.197 592.722 227.598C584.882 226.999 575.043 227 562 227V229ZM636.146 256.285C631.093 245.547 622.453 236.907 611.715 231.854L610.863 233.663C621.18 238.518 629.482 246.82 634.337 257.137L636.146 256.285ZM306 227C292.957 227 283.118 226.999 275.278 227.598C267.427 228.197 261.497 229.401 256.285 231.854L257.137 233.663C262.037 231.358 267.694 230.182 275.43 229.592C283.176 229.001 292.926 229 306 229V227ZM229 306C229 292.926 229.001 283.176 229.592 275.43C230.182 267.694 231.358 262.037 233.663 257.137L231.854 256.285C229.401 261.497 228.197 267.427 227.598 275.278C226.999 283.118 227 292.957 227 306H229ZM256.285 231.854C245.547 236.907 236.907 245.547 231.854 256.285L233.663 257.137C238.518 246.82 246.82 238.518 257.137 233.663L256.285 231.854ZM818 227C804.957 227 795.118 226.999 787.278 227.598C779.427 228.197 773.497 229.401 768.285 231.854L769.137 233.663C774.037 231.358 779.694 230.182 787.43 229.592C795.176 229.001 804.926 229 818 229V227ZM741 306C741 292.926 741.001 283.176 741.592 275.43C742.182 267.694 743.358 262.037 745.663 257.137L743.854 256.285C741.401 261.498 740.197 267.427 739.598 275.278C738.999 283.118 739 292.957 739 306H741ZM768.285 231.854C757.547 236.907 748.907 245.547 743.854 256.285L745.663 257.137C750.518 246.82 758.82 238.518 769.137 233.663L768.285 231.854ZM562 129C575.043 129 584.882 129.001 592.722 128.402C600.573 127.803 606.503 126.599 611.715 124.146L610.863 122.337C605.963 124.642 600.306 125.818 592.57 126.408C584.824 126.999 575.074 127 562 127V129ZM639 50C639 63.0741 638.999 72.8236 638.408 80.5702C637.818 88.3063 636.643 93.9628 634.337 98.8632L636.146 99.7147C638.599 94.5025 639.803 88.5733 640.402 80.7224C641.001 72.8821 641 63.0434 641 50H639ZM611.715 124.146C622.453 119.093 631.093 110.453 636.146 99.7147L634.337 98.8632C629.482 109.18 621.18 117.482 610.863 122.337L611.715 124.146ZM739 50C739 63.0434 738.999 72.8821 739.598 80.7224C740.197 88.5733 741.401 94.5025 743.854 99.7147L745.663 98.8632C743.358 93.9628 742.182 88.3063 741.592 80.5702C741.001 72.8236 741 63.0741 741 50H739ZM818 127C804.926 127 795.176 126.999 787.43 126.408C779.694 125.818 774.037 124.642 769.137 122.337L768.285 124.146C773.497 126.599 779.427 127.803 787.278 128.402C795.118 129.001 804.957 129 818 129V127ZM743.854 99.7147C748.907 110.453 757.547 119.093 768.285 124.146L769.137 122.337C758.82 117.482 750.518 109.18 745.663 98.8632L743.854 99.7147Z" fill="#8BB8D9" fill-opacity="0.2" mask="url(#path-1-inside-1_5307_24626)"/>
</svg>
