<svg width="38" height="36" viewBox="0 0 38 36" fill="none" xmlns="http://www.w3.org/2000/svg">
<path fill-rule="evenodd" clip-rule="evenodd" d="M21.755 5.18426H27.5879C34.5989 5.18426 38.0189 8.73023 37.9999 16.0022V24.7681C37.9999 31.716 33.4779 36 26.1249 36H11.856C4.54099 36 0 31.716 0 24.7501V11.2322C0 3.78027 3.49599 0.000307186 10.393 0.000307186H13.395C15.1639 -0.0176927 16.815 0.756301 17.898 2.07029L19.57 4.17627C20.102 4.80627 20.9 5.18426 21.755 5.18426ZM10.203 23.9221H27.797C28.576 23.9221 29.203 23.3101 29.203 22.5721C29.203 21.8161 28.576 21.2221 27.797 21.2221H10.203C9.405 21.2221 8.778 21.8161 8.778 22.5721C8.778 23.3101 9.405 23.9221 10.203 23.9221Z" fill="white"/>
</svg>
