<svg width="190" height="30" viewBox="0 0 190 30" fill="none" xmlns="http://www.w3.org/2000/svg">
<path d="M73.5378 10.875C76.2456 7.529 80.8452 7.80784 83.8497 9.46227C86.5575 10.9494 88.1711 13.2544 88.7275 16.2845C89.2654 19.2587 88.913 22.1214 87.2994 24.7239C85.8157 27.1219 83.6086 28.5533 80.8823 29.1481C78.2672 29.7244 75.7078 29.5757 73.2411 28.4789C70.1809 27.1219 68.3818 24.7053 67.6956 21.4522C67.4916 20.4856 67.4174 19.5004 67.3989 18.5152C67.3803 12.5481 67.3989 6.56237 67.3989 0.59527C67.3989 0.0375977 67.3989 0.0375977 67.9738 0.0375977C69.643 0.0375977 71.3122 0.0375977 73 0.0375977C73.3709 0.0375977 73.5564 0.229685 73.5564 0.613859C73.5564 3.84836 73.5564 7.08286 73.5564 10.336C73.5564 10.4847 73.5564 10.6334 73.5564 10.8936L73.5378 10.875ZM82.7184 18.9985C82.7184 18.7196 82.7184 18.5337 82.6813 18.3664C82.3475 14.0909 78.0817 13.1429 75.5594 14.7416C74.2055 15.5967 73.6305 16.9351 73.5378 18.478C73.3152 22.9951 77.1173 24.5194 80.0106 23.3297C81.958 22.5304 82.6442 20.876 82.6998 18.9985H82.7184Z" fill="#4C5964"/>
<path d="M6.15749 10.8002C6.26877 10.7073 6.30586 10.6701 6.34295 10.6515C8.04924 8.49518 10.2934 7.91892 12.8714 8.458C16.4323 9.20156 18.5652 11.488 19.4369 14.9456C19.7151 16.0795 19.8449 17.2878 19.8635 18.4775C19.9191 21.7864 19.8635 25.0952 19.9006 28.4041C19.9006 28.8502 19.7707 28.9618 19.3442 28.9618C17.6564 28.9432 15.9687 28.9432 14.2809 28.9618C13.8543 28.9618 13.7245 28.8502 13.7245 28.4227C13.7431 25.151 13.7616 21.8793 13.7245 18.6262C13.7245 17.8827 13.6132 17.1019 13.4092 16.377C12.927 14.7597 11.4433 13.8674 9.6628 14.0533C7.69686 14.2392 6.50987 15.4289 6.26877 17.4179C6.21313 17.8641 6.19458 18.3288 6.19458 18.7935C6.19458 22.0094 6.19458 25.2068 6.19458 28.4227C6.19458 28.8688 6.04621 28.9804 5.63818 28.9618C3.95044 28.9432 2.26269 28.9432 0.574946 28.9618C0.148373 28.9618 0 28.8688 0 28.4413C0 19.1281 0 9.83359 0 0.52046C0 0.130089 0.11128 0.0185547 0.500759 0.0185547C2.2256 0.0371438 3.93189 0.0371438 5.65673 0.0185547C6.04621 0.0185547 6.15749 0.130089 6.15749 0.52046C6.15749 3.75496 6.15749 7.00805 6.15749 10.2426C6.15749 10.3913 6.15749 10.54 6.15749 10.7816V10.8002Z" fill="#4C5964"/>
<path d="M107.126 28.9247V25.8575C106.755 26.378 106.458 26.8985 106.05 27.3447C104.566 28.9805 102.656 29.5382 100.523 29.4452C95.9049 29.2222 92.177 25.8947 91.4166 21.3218C91.0827 19.3514 91.1569 17.3995 91.7504 15.5034C92.6777 12.5106 94.5695 10.3357 97.4813 9.16454C100.69 7.8819 103.917 7.90049 107.07 9.33185C110.241 10.7818 111.985 13.3843 112.578 16.7861C112.727 17.6226 112.764 18.4591 112.764 19.3142C112.782 22.3442 112.764 25.3556 112.764 28.3857C112.764 28.553 112.764 28.7203 112.764 28.9247H107.126ZM106.606 18.9052C106.643 16.3957 105.141 14.2022 102.341 14.0535C100.894 13.9791 99.6327 14.3695 98.6312 15.4662C97.6482 16.563 97.37 17.8828 97.4442 19.2956C97.6297 22.5115 100.467 24.4634 103.546 23.4967C105.438 22.9019 106.606 21.1545 106.606 18.9052Z" fill="#4C5964"/>
<path d="M33.7728 29.5381C30.5642 29.4266 27.7451 28.4228 25.5566 26.0062C23.9801 24.2588 23.1826 22.1954 22.9972 19.8532C22.8302 17.7712 23.127 15.7822 24.0729 13.9233C25.5752 10.9676 28.0048 9.18309 31.2133 8.53247C34.7186 7.82608 38.0014 8.36516 40.8576 10.6516C43.0832 12.4362 44.2331 14.8342 44.5113 17.6597C44.7709 20.1878 44.3073 22.5858 42.9163 24.7422C41.3954 27.103 39.2255 28.5343 36.5177 29.1292C35.6089 29.3337 34.6816 29.3894 33.7728 29.5195V29.5381ZM29.1732 19.0725C29.2103 19.3141 29.2288 19.7231 29.303 20.1321C29.7296 22.214 31.3432 23.6082 33.4389 23.7012C35.7387 23.8127 37.5192 22.6416 38.0756 20.5038C38.2796 19.7417 38.3352 18.9052 38.2611 18.1244C37.8345 14.0906 33.7913 13.1983 31.3246 14.6483C29.7481 15.5777 29.1732 17.102 29.1547 19.0539L29.1732 19.0725Z" fill="#4C5964"/>
<path d="M53.8401 8.81111C54.0627 8.81111 54.2296 8.81111 54.415 8.81111C57.2156 8.81111 60.0161 8.81111 62.8167 8.81111C63.2061 8.81111 63.336 8.92265 63.3174 9.31302C63.2989 10.8559 63.3174 12.3802 63.3174 13.9231C63.3174 14.2763 63.2062 14.3878 62.8538 14.3878C60.0347 14.3878 57.2156 14.3878 54.3965 14.3878C54.2296 14.3878 54.0627 14.3878 53.8586 14.3878C53.8586 14.5551 53.8215 14.6853 53.8215 14.7968C53.8215 16.8974 53.8215 19.0165 53.8215 21.1171C53.8215 21.5632 53.8957 22.0094 54.0256 22.4183C54.2296 23.1061 54.7118 23.5337 55.4351 23.6452C55.806 23.701 56.177 23.7196 56.5479 23.6824C57.5123 23.5708 58.1058 22.976 58.2727 21.935C58.3284 21.5446 58.3469 21.1357 58.3655 20.7453C58.3655 20.4851 58.4397 20.3549 58.7179 20.3549C60.5354 20.3549 62.353 20.3549 64.1706 20.3549C64.3931 20.3549 64.523 20.4107 64.523 20.671C64.523 22.5484 64.2819 24.3702 63.2989 26.006C62.3159 27.6233 60.8693 28.6271 59.0888 29.0918C56.7705 29.7052 54.4707 29.6867 52.2265 28.7944C49.5929 27.7534 48.2576 25.6714 47.831 22.9574C47.7197 22.2138 47.6826 21.4517 47.6641 20.6895C47.6641 14.5737 47.6641 8.43933 47.6641 2.32352C47.6641 1.91456 47.8681 1.71008 48.2761 1.71008C49.9638 1.71008 51.6516 1.71008 53.3393 1.71008C53.7474 1.71008 53.8401 1.84021 53.8401 2.23058C53.8401 4.2382 53.8401 6.24582 53.8401 8.25344C53.8401 8.42074 53.8401 8.58804 53.8401 8.84829V8.81111Z" fill="#4C5964"/>
<path d="M123.448 28.906C123.281 28.906 123.114 28.9432 122.965 28.9432C121.24 28.9432 119.534 28.9432 117.809 28.9432C117.401 28.9432 117.309 28.8131 117.309 28.4227C117.309 19.1282 117.309 9.83363 117.309 0.557673C117.309 0.111534 117.438 0 117.865 0C119.571 0.0185891 121.278 0 122.965 0C123.318 0 123.466 0.0743564 123.466 0.464727C123.466 9.79645 123.466 19.1282 123.466 28.4599C123.466 28.59 123.466 28.7201 123.448 28.8874V28.906Z" fill="#4C5964"/>
<path d="M128.676 28.9065C128.676 28.702 128.676 28.5347 128.676 28.3674C128.676 19.11 128.676 9.85264 128.676 0.59527C128.676 0.223489 128.861 0.0375977 129.232 0.0375977C130.938 0.0375977 132.626 0.0375977 134.333 0.0375977C134.703 0.0375977 134.815 0.149132 134.815 0.520914C134.815 9.85264 134.815 19.1844 134.815 28.4975C134.815 28.7763 134.815 28.9622 134.444 28.9622C132.626 28.9622 130.809 28.9622 128.991 28.9622C128.917 28.9622 128.824 28.9436 128.676 28.925V28.9065Z" fill="#4C5964"/>
<path d="M175.114 0.652222L141.199 0.652222L159.095 7.94293L141.199 15.2152L159.095 22.5059L141.199 29.7966L175.114 29.7966C183.152 29.7966 189.662 23.2792 189.662 15.2336C189.662 7.18808 183.152 0.652222 175.114 0.652222Z" fill="#FF5215"/>
</svg>
