<svg width="38" height="39" viewBox="0 0 38 39" fill="none" xmlns="http://www.w3.org/2000/svg">
<path d="M30.0564 21.2649L36.7265 14.5948C38.5391 12.7823 38.3941 9.66472 36.4365 7.63468L30.2739 1.61707C28.2439 -0.412965 25.1263 -0.557967 23.3138 1.32707L16.6436 7.99719C14.8311 9.80972 14.9761 12.9273 16.9337 14.9573L18.7462 16.7699L24.2563 11.2597C24.8363 10.6797 25.9238 10.6797 26.5763 11.3323C27.2288 11.9848 27.3013 13.0723 26.6488 13.6523L21.1387 19.1624L22.9513 20.9749C25.0538 23.005 28.1714 23.0775 30.0564 21.2649Z" fill="white"/>
<path d="M16.6437 18.8724L14.8312 17.0598C12.8012 15.0298 9.68359 14.8848 7.87106 16.7698L1.27344 23.3674C-0.539096 25.18 -0.394094 28.2975 1.56344 30.3276L7.65356 36.4177C9.68359 38.4477 12.8012 38.5927 14.6137 36.7077L21.2838 30.0376C23.0963 28.225 22.9513 25.1075 20.9938 23.0774L19.1813 21.2649L13.6712 26.775C13.0912 27.355 12.0036 27.355 11.3511 26.7025C10.6986 26.05 10.6261 24.9625 11.2786 24.3825L16.6437 18.8724Z" fill="white"/>
</svg>
