<svg width="40" height="40" viewBox="0 0 40 40" fill="none" xmlns="http://www.w3.org/2000/svg">
<path d="M35.8054 0H4.19458C1.87798 0 0 1.87798 0 4.19458V35.8054C0 38.122 1.87798 40 4.19458 40H35.8054C38.122 40 40 38.122 40 35.8054V4.19458C40 1.87798 38.122 0 35.8054 0Z" fill="white"/>
<path d="M5.99357 15.1439H11.9971V34.457H5.99357V15.1439ZM8.99648 5.54382C10.9151 5.54382 12.4742 7.10407 12.4742 9.02725C12.4742 10.9504 10.9151 12.505 8.99648 12.505C7.07783 12.505 5.51758 10.9482 5.51758 9.02725C5.51758 7.10633 7.07217 5.54382 8.99648 5.54382Z" fill="#2867B2"/>
<path d="M15.7617 15.1433H21.5199V17.7855H21.6025C22.4029 16.266 24.3612 14.6661 27.2815 14.6661C33.3609 14.6661 34.4824 18.6651 34.4824 23.8637V34.4564H28.4823V25.0644C28.4823 22.8246 28.4438 19.9427 25.3618 19.9427C22.2797 19.9427 21.7619 22.386 21.7619 24.9038V34.4564H15.7617V15.1433Z" fill="#2867B2"/>
</svg>
