<svg width="39" height="40" viewBox="0 0 39 40" fill="none" xmlns="http://www.w3.org/2000/svg">
<path d="M2.40664 1.72558L24.5397 0.0909338C27.2584 -0.142397 27.957 0.0149348 29.6663 1.25759L36.7316 6.23486C37.8969 7.09085 38.2849 7.32418 38.2849 8.25617V35.5532C38.2849 37.2638 37.6636 38.2758 35.4889 38.4305L9.78655 39.9865C8.15457 40.0638 7.37725 39.8305 6.52259 38.7411L1.31998 31.9759C0.386662 30.7306 0 29.7986 0 28.7093V4.44555C0 3.0469 0.621326 1.88025 2.40664 1.72558Z" fill="white"/>
<path fill-rule="evenodd" clip-rule="evenodd" d="M24.5397 0.0909338L2.40664 1.72558C0.621326 1.88025 0 3.0469 0 4.44555V28.7093C0 29.7986 0.386662 30.7306 1.31998 31.9759L6.52259 38.7411C7.37725 39.8305 8.15457 40.0638 9.78655 39.9865L35.4889 38.4305C37.6622 38.2758 38.2849 37.2638 38.2849 35.5532V8.25617C38.2849 7.37218 37.9356 7.11752 36.9076 6.36286C36.8484 6.32025 36.7893 6.27759 36.7302 6.23486L29.6663 1.25759C27.957 0.0149348 27.2584 -0.142397 24.5397 0.0909338ZM10.3679 7.80951C8.26924 7.95084 7.79324 7.98284 6.60126 7.01352L3.57063 4.60288C3.26263 4.29088 3.41729 3.90156 4.19328 3.82422L25.4704 2.26958C27.257 2.11358 28.1877 2.73624 28.8863 3.28023L32.5356 5.9242C32.6916 6.00287 33.0796 6.46819 32.613 6.46819L10.6399 7.79084L10.3679 7.80951ZM7.92124 35.3199V12.1468C7.92124 11.1348 8.23191 10.6681 9.16256 10.5895L34.3996 9.11216C35.2556 9.03483 35.6423 9.57882 35.6423 10.5895V33.6079C35.6423 34.6199 35.4863 35.4759 34.0889 35.5532L9.93855 36.9532C8.54123 37.0305 7.92124 36.5652 7.92124 35.3199ZM31.761 13.3894C31.9156 14.0894 31.761 14.7894 31.061 14.8694L29.897 15.1001V32.2092C28.8863 32.7532 27.9557 33.0639 27.1784 33.0639C25.9357 33.0639 25.625 32.6746 24.6944 31.5092L17.0825 19.5334V31.1199L19.4904 31.6652C19.4904 31.6652 19.4904 33.0652 17.5478 33.0652L12.1919 33.3759C12.0359 33.0639 12.1919 32.2866 12.7345 32.1319L14.1332 31.7439V16.4241L12.1919 16.2667C12.0359 15.5668 12.4239 14.5561 13.5118 14.4774L19.2584 14.0908L27.1784 26.2213V15.4894L25.1597 15.2574C25.0037 14.4001 25.625 13.7774 26.401 13.7014L31.761 13.3894Z" fill="black"/>
</svg>
