<svg width="356" height="358" viewBox="0 0 356 358" fill="none" xmlns="http://www.w3.org/2000/svg">
<mask id="path-1-inside-1_4829_5535" fill="white">
<path fill-rule="evenodd" clip-rule="evenodd" d="M178 0C150.386 0 128 22.3858 128 50V52C128 78.1175 128 91.1763 123.241 101.289C118.287 111.817 109.817 120.287 99.289 125.241C89.1763 130 76.1176 130 50 130C22.3858 130 2.18557e-06 152.386 0 180C-1.20706e-06 207.614 22.3858 230 50 230C76.1176 230 89.1763 230 99.289 234.759C109.817 239.713 118.287 248.183 123.241 258.711C128 268.824 128 281.882 128 308C128 335.614 150.386 358 178 358C205.614 358 228 335.614 228 308C228 281.882 228 268.824 232.759 258.711C237.713 248.183 246.183 239.713 256.711 234.759C266.824 230 279.882 230 306 230C333.614 230 356 207.614 356 180C356 152.386 333.614 130 306 130C279.882 130 266.824 130 256.711 125.241C246.183 120.287 237.713 111.817 232.759 101.289C228 91.1763 228 78.1175 228 52V50C228 22.3858 205.614 0 178 0Z"/>
</mask>
<path fill-rule="evenodd" clip-rule="evenodd" d="M178 0C150.386 0 128 22.3858 128 50V52C128 78.1175 128 91.1763 123.241 101.289C118.287 111.817 109.817 120.287 99.289 125.241C89.1763 130 76.1176 130 50 130C22.3858 130 2.18557e-06 152.386 0 180C-1.20706e-06 207.614 22.3858 230 50 230C76.1176 230 89.1763 230 99.289 234.759C109.817 239.713 118.287 248.183 123.241 258.711C128 268.824 128 281.882 128 308C128 335.614 150.386 358 178 358C205.614 358 228 335.614 228 308C228 281.882 228 268.824 232.759 258.711C237.713 248.183 246.183 239.713 256.711 234.759C266.824 230 279.882 230 306 230C333.614 230 356 207.614 356 180C356 152.386 333.614 130 306 130C279.882 130 266.824 130 256.711 125.241C246.183 120.287 237.713 111.817 232.759 101.289C228 91.1763 228 78.1175 228 52V50C228 22.3858 205.614 0 178 0Z" fill="#8BB8D9" fill-opacity="0.08"/>
<path d="M0 180H-1H0ZM256.711 125.241L256.285 126.146L256.711 125.241ZM232.759 101.289L231.854 101.715L232.759 101.289ZM232.759 258.711L231.854 258.285L232.759 258.711ZM256.711 234.759L256.285 233.854L256.711 234.759ZM99.289 234.759L98.8632 235.663L99.289 234.759ZM123.241 258.711L122.337 259.137L123.241 258.711ZM99.289 125.241L99.7147 126.146L99.289 125.241ZM129 50C129 22.9381 150.938 1 178 1V-1C149.833 -1 127 21.8335 127 50H129ZM129 52V50H127V52H129ZM1 180C1 152.938 22.9381 131 50 131V129C21.8335 129 -0.999998 151.833 -1 180H1ZM50 229C22.9381 229 0.999999 207.062 1 180H-1C-1 208.167 21.8335 231 50 231V229ZM178 357C150.938 357 129 335.062 129 308H127C127 336.167 149.833 359 178 359V357ZM227 308C227 335.062 205.062 357 178 357V359C206.167 359 229 336.167 229 308H227ZM355 180C355 207.062 333.062 229 306 229V231C334.167 231 357 208.167 357 180H355ZM306 131C333.062 131 355 152.938 355 180H357C357 151.833 334.167 129 306 129V131ZM227 50V52H229V50H227ZM178 1C205.062 1 227 22.938 227 50H229C229 21.8335 206.167 -1 178 -1V1ZM306 129C292.926 129 283.176 128.999 275.43 128.408C267.694 127.818 262.037 126.642 257.137 124.337L256.285 126.146C261.497 128.599 267.427 129.803 275.278 130.402C283.118 131.001 292.957 131 306 131V129ZM227 52C227 65.0434 226.999 74.8821 227.598 82.7224C228.197 90.5733 229.401 96.5025 231.854 101.715L233.663 100.863C231.358 95.9628 230.182 90.3063 229.592 82.5702C229.001 74.8236 229 65.0741 229 52H227ZM257.137 124.337C246.82 119.482 238.518 111.18 233.663 100.863L231.854 101.715C236.907 112.453 245.547 121.093 256.285 126.146L257.137 124.337ZM229 308C229 294.926 229.001 285.176 229.592 277.43C230.182 269.694 231.358 264.037 233.663 259.137L231.854 258.285C229.401 263.497 228.197 269.427 227.598 277.278C226.999 285.118 227 294.957 227 308H229ZM306 229C292.957 229 283.118 228.999 275.278 229.598C267.427 230.197 261.497 231.401 256.285 233.854L257.137 235.663C262.037 233.358 267.694 232.182 275.43 231.592C283.176 231.001 292.926 231 306 231V229ZM233.663 259.137C238.518 248.82 246.82 240.518 257.137 235.663L256.285 233.854C245.547 238.907 236.907 247.547 231.854 258.285L233.663 259.137ZM50 231C63.0742 231 72.8236 231.001 80.5702 231.592C88.3063 232.182 93.9628 233.358 98.8632 235.663L99.7147 233.854C94.5025 231.401 88.5733 230.197 80.7224 229.598C72.8821 228.999 63.0434 229 50 229V231ZM129 308C129 294.957 129.001 285.118 128.402 277.278C127.803 269.427 126.599 263.497 124.146 258.285L122.337 259.137C124.642 264.037 125.818 269.694 126.408 277.43C126.999 285.176 127 294.926 127 308H129ZM98.8632 235.663C109.18 240.518 117.482 248.82 122.337 259.137L124.146 258.285C119.093 247.547 110.453 238.907 99.7147 233.854L98.8632 235.663ZM127 52C127 65.0741 126.999 74.8236 126.408 82.5702C125.818 90.3062 124.642 95.9628 122.337 100.863L124.146 101.715C126.599 96.5025 127.803 90.5733 128.402 82.7224C129.001 74.8821 129 65.0434 129 52H127ZM50 131C63.0434 131 72.8821 131.001 80.7224 130.402C88.5733 129.803 94.5025 128.599 99.7147 126.146L98.8632 124.337C93.9628 126.642 88.3063 127.818 80.5702 128.408C72.8236 128.999 63.0742 129 50 129V131ZM122.337 100.863C117.482 111.18 109.18 119.482 98.8632 124.337L99.7147 126.146C110.453 121.093 119.093 112.453 124.146 101.715L122.337 100.863Z" fill="#8BB8D9" fill-opacity="0.2" mask="url(#path-1-inside-1_4829_5535)"/>
</svg>
